:FULLY-SPECIFIED
:FORCE-ALL-JOINTS-BE-3DOF
:DEGREES
476
root 3.58971 16.265 -7.12725 18.132 60.8238 5.60066
lfemur -41.0051 1.17876 -23.0976
ltibia 49.2016 0 0
lfoot -20.3477 -1.65533 0
ltoes 18.068 0 0
rfemur -24.0458 -1.7044 11.8674
rtibia 68.8446 0 0
rfoot 23.2413 -2.19492 0
rtoes -28.0256 0 0
lowerback 1.31287 -0.280634 2.14214
upperback -0.642784 -0.344541 1.08035
thorax -1.39468 -0.182521 -0.0700379
lowerneck -8.38616 -6.55088 0.742457
upperneck 3.71128 -8.90848 1.39476
head 2.70482 -4.36739 -0.105184
lclavicle -2.28855e-14 -1.38319e-14 0
lhumerus -48.7627 -27.0697 108.573
lradius 54.5378 0 0
lwrist 3.26538 0 0
lhand -9.62863 -6.10158 0
lfingers 7.12502 0 0
lthumb 16.3243 22.9442 0
rclavicle -2.28855e-14 -1.38319e-14 0
rhumerus -54.3097 1.50885 -86.3695
rradius 60.898 0 0
rwrist 17.5705 0 0
rhand -28.9948 -27.2195 0
rfingers 7.12502 0 0
rthumb -2.33358 -777.412 0
477
root 3.66922 16.2873 -7.08111 18.4913 61.9723 6.36958
lfemur -39.9171 -0.326482 -23.1791
ltibia 48.642 0 0
lfoot -20.4271 -1.68947 0
ltoes 18.2157 0 0
rfemur -26.2384 -1.59202 11.6497
rtibia 71.3781 0 0
rfoot 22.5984 -1.09189 0
rtoes -26.3254 0 0
lowerback 1.49276 -0.302275 1.83368
upperback -0.599764 -0.375759 0.968
thorax -1.45084 -0.196684 -0.0126737
lowerneck -8.39907 -6.70647 0.599445
upperneck 3.7952 -9.10683 1.46502
head 2.74778 -4.46456 -0.0722545
lclavicle -1.88833e-14 -1.27323e-14 0
lhumerus -48.8507 -27.429 108.797
lradius 54.8197 0 0
lwrist 3.53347 0 0
lhand -8.27721 -5.36744 0
lfingers 7.12502 0 0
lthumb 17.6261 23.5891 0
rclavicle -1.88833e-14 -1.27323e-14 0
rhumerus -54.0395 2.15541 -86.9635
rradius 61.0641 0 0
rwrist 18.149 0 0
rhand -28.6002 -26.9076 0
rfingers 7.12502 0 0
rthumb -1.95222 -777.106 0
478
root 3.74873 16.3096 -7.03496 18.463 63.0958 6.7437
lfemur -38.8512 -1.79167 -23.2475
ltibia 48.115 0 0
lfoot -20.5146 -1.73457 0
ltoes 18.334 0 0
rfemur -28.3913 -1.46762 11.4315
rtibia 73.7701 0 0
rfoot 21.9478 -0.0238862 0
rtoes -24.6913 0 0
lowerback 1.67835 -0.321866 1.53464
upperback -0.555186 -0.40405 0.863267
thorax -1.50855 -0.209353 0.0471867
lowerneck -8.41234 -6.86185 0.457228
upperneck 3.88844 -9.30504 1.53304
head 2.7931 -4.56159 -0.0408405
lclavicle -1.50397e-14 -1.16248e-14 0
lhumerus -48.9303 -27.7866 109.025
lradius 55.0917 0 0
lwrist 3.79384 0 0
lhand -6.95887 -4.65496 0
lfingers 7.12502 0 0
lthumb 18.8958 24.2125 0
rclavicle -1.50397e-14 -1.16248e-14 0
rhumerus -53.7267 2.8631 -87.5255
rradius 61.3161 0 0
rwrist 18.6766 0 0
rhand -28.1471 -26.5798 0
rfingers 7.12502 0 0
rthumb -1.51488 -776.776 0
479
root 3.82824 16.332 -6.98882 17.9904 64.1948 6.66335
lfemur -37.8182 -3.20217 -23.3068
ltibia 47.6267 0 0
lfoot -20.6096 -1.78983 0
ltoes 18.4249 0 0
rfemur -30.4824 -1.32995 11.2152
rtibia 75.9858 0 0
rfoot 21.3033 0.997596 0
rtoes -23.142 0 0
lowerback 1.86782 -0.339387 1.24844
upperback -0.509592 -0.42941 0.768249
thorax -1.5674 -0.220527 0.109831
lowerneck -8.42623 -7.01731 0.31592
upperneck 3.9924 -9.50353 1.59822
head 2.8411 -4.65868 -0.0112321
lclavicle -1.14242e-14 -1.05222e-14 0
lhumerus -49.002 -28.139 109.259
lradius 55.35 0 0
lwrist 4.04197 0 0
lhand -5.68722 -3.97466 0
lfingers 7.12502 0 0
lthumb 20.1204 24.8045 0
rclavicle -1.14242e-14 -1.05222e-14 0
rhumerus -53.3689 3.63647 -88.045
rradius 61.6638 0 0
rwrist 19.142 0 0
rhand -27.63 -26.2358 0
rfingers 7.12502 0 0
rthumb -1.01608 -776.421 0
480
root 3.90775 16.3543 -6.94267 17.0167 65.2698 6.06883
lfemur -36.8291 -4.54331 -23.3611
ltibia 47.1831 0 0
lfoot -20.7113 -1.85444 0
ltoes 18.4905 0 0
rfemur -32.4899 -1.17776 11.0034
rtibia 77.9906 0 0
rfoot 20.6784 1.96107 0
rtoes -21.6961 0 0
lowerback 2.05932 -0.35482 0.978495
upperback -0.463522 -0.451834 0.685043
thorax -1.62694 -0.230207 0.175546
lowerneck -8.44099 -7.17315 0.175632
upperneck 4.1085 -9.7027 1.65997
head 2.89208 -4.75602 0.0162803
lclavicle -8.10666e-15 -9.43775e-15 0
lhumerus -49.0659 -28.4826 109.5
lradius 55.5909 0 0
lwrist 4.27331 0 0
lhand -4.47587 -3.33707 0
lfingers 7.12502 0 0
lthumb 21.2867 25.3551 0
rclavicle -8.10666e-15 -9.43775e-15 0
rhumerus -52.9634 4.48007 -88.5115
rradius 62.1172 0 0
rwrist 19.534 0 0
rhand -27.0429 -25.8755 0
rfingers 7.12502 0 0
rthumb -0.450349 -776.041 0
481
root 3.98726 16.3767 -6.89653 15.4849 66.3212 4.90048
lfemur -35.8948 -5.80046 -23.4144
ltibia 46.7904 0 0
lfoot -20.8191 -1.92762 0
ltoes 18.5329 0 0
rfemur -34.3917 -1.00978 10.7984
rtibia 79.75 0 0
rfoot 20.0868 2.85504 0
rtoes -20.3722 0 0
lowerback 2.25102 -0.368148 0.728218
upperback -0.417516 -0.471317 0.615748
thorax -1.68672 -0.238391 0.244619
lowerneck -8.45685 -7.32964 0.0364775
upperneck 4.23814 -9.90295 1.7177
head 2.94634 -4.8538 0.0414063
lclavicle -5.15659e-15 -8.38437e-15 0
lhumerus -49.1224 -28.8138 109.751
lradius 55.8106 0 0
lwrist 4.48333 0 0
lhand -3.33843 -2.75271 0
lfingers 7.12502 0 0
lthumb 22.3815 25.8544 0
rclavicle -5.15659e-15 -8.38437e-15 0
rhumerus -52.5079 5.39845 -88.9145
rradius 62.6862 0 0
rwrist 19.8414 0 0
rhand -26.3804 -25.4986 0
rfingers 7.12502 0 0
rthumb 0.1878 -775.632 0
482
root 4.06677 16.399 -6.85038 13.3384 67.3497 3.09859
lfemur -35.0263 -6.95896 -23.4708
ltibia 46.4545 0 0
lfoot -20.9325 -2.00854 0
ltoes 18.554 0 0
rfemur -36.1659 -0.824781 10.6029
rtibia 81.2292 0 0
rfoot 19.542 3.66802 0
rtoes -19.1889 0 0
lowerback 2.44108 -0.379352 0.501023
upperback -0.372117 -0.487854 0.562463
thorax -1.74633 -0.24508 0.317339
lowerneck -8.47407 -7.4871 -0.101432
upperneck 4.38273 -10.1047 1.77083
head 3.00419 -4.95223 0.0638555
lclavicle -2.64368e-15 -7.37512e-15 0
lhumerus -49.1718 -29.1291 110.012
lradius 56.0055 0 0
lwrist 4.66752 0 0
lhand -2.28852 -2.2321 0
lfingers 7.12502 0 0
lthumb 23.3917 26.2925 0
rclavicle -2.64368e-15 -7.37512e-15 0
rhumerus -51.9999 6.39615 -89.2435
rradius 63.3805 0 0
rwrist 20.0531 0 0
rhand -25.6365 -25.1051 0
rfingers 7.12502 0 0
rthumb 0.903846 -775.196 0
483
root 4.14628 16.4214 -6.80424 10.5204 68.3557 0.603495
lfemur -34.2343 -8.00416 -23.5343
ltibia 46.1817 0 0
lfoot -21.0508 -2.09642 0
ltoes 18.556 0 0
rfemur -37.7904 -0.621499 10.4192
rtibia 82.3937 0 0
rfoot 19.0578 4.38851 0
rtoes -18.1647 0 0
lowerback 2.62767 -0.388413 0.300327
upperback -0.327863 -0.501441 0.527287
thorax -1.80531 -0.250273 0.393992
lowerneck -8.49289 -7.64579 -0.237984
upperneck 4.54369 -10.3083 1.81875
head 3.06593 -5.05149 0.0833373
lclavicle -6.37586e-16 -6.42303e-15 0
lhumerus -49.2144 -29.4248 110.285
lradius 56.1717 0 0
lwrist 4.82133 0 0
lhand -1.33974 -1.78577 0
lfingers 7.12502 0 0
lthumb 24.3042 26.6594 0
rclavicle -6.37586e-16 -6.42303e-15 0
rhumerus -51.4367 7.47772 -89.4881
rradius 64.2102 0 0
rwrist 20.1579 0 0
rhand -24.8055 -24.6946 0
rfingers 7.12502 0 0
rthumb 1.70327 -774.729 0
484
root 4.22579 16.4437 -6.75809 6.97404 69.3397 -2.6445
lfemur -33.53 -8.92142 -23.6091
ltibia 45.9779 0 0
lfoot -21.1734 -2.19044 0
ltoes 18.5409 0 0
rfemur -39.2433 -0.398685 10.2498
rtibia 83.2088 0 0
rfoot 18.6477 5.00504 0
rtoes -17.3184 0 0
lowerback 2.80895 -0.395314 0.129542
upperback -0.285297 -0.512072 0.512318
thorax -1.86323 -0.25397 0.474865
lowerneck -8.51357 -7.80601 -0.373066
upperneck 4.72242 -10.5143 1.86088
head 3.13186 -5.15179 0.0995613
lclavicle 7.92033e-16 -5.54112e-15 0
lhumerus -49.2505 -29.6974 110.571
lradius 56.3056 0 0
lwrist 4.94023 0 0
lhand -0.505724 -1.42422 0
lfingers 7.12502 0 0
lthumb 25.1059 26.9452 0
rclavicle 7.92033e-16 -5.54112e-15 0
rhumerus -50.8159 8.64771 -89.6376
rradius 65.185 0 0
rwrist 20.1445 0 0
rhand -23.8818 -24.267 0
rfingers 7.12502 0 0
rthumb 2.59155 -774.231 0
485
root 4.29201 16.4428 -6.6979 2.49953 70.3332 -6.83738
lfemur -32.8794 -9.75363 -23.6765
ltibia 45.8216 0 0
lfoot -21.3054 -2.31491 0
ltoes 18.5021 0 0
rfemur -40.5975 -0.140977 10.0967
rtibia 83.7039 0 0
rfoot 18.2571 5.53425 0
rtoes -16.6081 0 0
lowerback 2.99331 -0.399885 -0.0203612
upperback -0.24486 -0.520351 0.512242
thorax -1.925 -0.256568 0.559635
lowerneck -8.53952 -7.96532 -0.505515
upperneck 4.92347 -10.7191 1.89502
head 3.2032 -5.25149 0.111686
lclavicle 1.78388e-15 -4.66683e-15 0
lhumerus -49.2786 -29.9687 110.88
lradius 56.4084 0 0
lwrist 5.01932 0 0
lhand 0.269972 -1.11968 0
lfingers 7.12502 0 0
lthumb 25.8508 27.1715 0
rclavicle 1.78388e-15 -4.66683e-15 0
rhumerus -50.1451 10.0042 -89.7099
rradius 66.3309 0 0
rwrist 20.0648 0 0
rhand -22.7842 -23.7912 0
rfingers 7.12502 0 0
rthumb 3.6466 -773.663 0
486
root 4.35822 16.442 -6.63772 -2.99481 71.3607 -12.0571
lfemur -32.2425 -10.5527 -23.7168
ltibia 45.6883 0 0
lfoot -21.4517 -2.49021 0
ltoes 18.4321 0 0
rfemur -41.9378 0.16241 9.95847
rtibia 83.9442 0 0
rfoot 17.8258 6.00326 0
rtoes -15.9781 0 0
lowerback 3.18967 -0.402012 -0.160705
upperback -0.206257 -0.526767 0.520289
thorax -1.99508 -0.258386 0.647696
lowerneck -8.57319 -8.12142 -0.634534
upperneck 5.14879 -10.9195 1.92011
head 3.28054 -5.34904 0.119389
lclavicle 2.53249e-15 -3.73445e-15 0
lhumerus -49.2973 -30.2604 111.218
lradius 56.4856 0 0
lwrist 5.06013 0 0
lhand 1.04882 -0.83728 0
lfingers 7.12502 0 0
lthumb 26.5982 27.3675 0
rclavicle 2.53249e-15 -3.73445e-15 0
rhumerus -49.4335 11.6202 -89.732
rradius 67.6568 0 0
rwrist 19.9735 0 0
rhand -21.4547 -23.2426 0
rfingers 7.12502 0 0
rthumb 4.92418 -772.995 0
487
root 4.42444 16.4411 -6.57753 -9.40361 72.4125 -18.1984
lfemur -31.6207 -11.3175 -23.7323
ltibia 45.5795 0 0
lfoot -21.6113 -2.70971 0
ltoes 18.3311 0 0
rfemur -43.2599 0.505868 9.83251
rtibia 83.9484 0 0
rfoot 17.3594 6.41627 0
rtoes -15.4261 0 0
lowerback 3.39697 -0.401761 -0.291512
upperback -0.168922 -0.531142 0.536374
thorax -2.07234 -0.259305 0.738917
lowerneck -8.61334 -8.2748 -0.760563
upperneck 5.39588 -11.1162 1.9373
head 3.36328 -5.44479 0.123152
lclavicle 3.05198e-15 -2.75234e-15 0
lhumerus -49.3068 -30.5688 111.581
lradius 56.5398 0 0
lwrist 5.06774 0 0
lhand 1.82478 -0.576946 0
lfingers 7.12502 0 0
lthumb 27.3421 27.5348 0
rclavicle 3.05198e-15 -2.75234e-15 0
rhumerus -48.6807 13.4626 -89.7068
rradius 69.147 0 0
rwrist 19.864 0 0
rhand -19.9222 -22.6307 0
rfingers 7.12502 0 0
rthumb 6.39652 -772.24 0
488
root 4.49065 16.4403 -6.51734 -16.6215 73.4786 -25.1558
lfemur -31.0153 -12.0468 -23.7253
ltibia 45.4968 0 0
lfoot -21.7832 -2.96676 0
ltoes 18.1995 0 0
rfemur -44.5594 0.883785 9.71627
rtibia 83.7356 0 0
rfoot 16.8634 6.77746 0
rtoes -14.9497 0 0
lowerback 3.61416 -0.399197 -0.412804
upperback -0.13229 -0.533299 0.560412
thorax -2.15566 -0.259205 0.833164
lowerneck -8.65875 -8.42597 -0.884041
upperneck 5.66225 -11.3099 1.9477
head 3.45082 -5.53906 0.123462
lclavicle 3.35647e-15 -1.72884e-15 0
lhumerus -49.3072 -30.8904 111.964
lradius 56.5736 0 0
lwrist 5.04725 0 0
lhand 2.59182 -0.338597 0
lfingers 7.12502 0 0
lthumb 28.077 27.6747 0
rclavicle 3.35647e-15 -1.72884e-15 0
rhumerus -47.8865 15.4985 -89.6373
rradius 70.7858 0 0
rwrist 19.7299 0 0
rhand -18.2157 -21.9649 0
rfingers 7.12502 0 0
rthumb 8.03586 -771.411 0
489
root 4.55687 16.4394 -6.45715 -24.5431 74.5492 -32.8241
lfemur -30.4277 -12.7396 -23.6982
ltibia 45.4419 0 0
lfoot -21.9662 -3.25471 0
ltoes 18.0375 0 0
rfemur -45.8321 1.29055 9.60719
rtibia 83.3245 0 0
rfoot 16.3433 7.09104 0
rtoes -14.5465 0 0
lowerback 3.84021 -0.394386 -0.524603
upperback -0.0957968 -0.533061 0.592319
thorax -2.24391 -0.257968 0.930305
lowerneck -8.70821 -8.57544 -1.00541
upperneck 5.94542 -11.5014 1.95247
head 3.54254 -5.6322 0.120802
lclavicle 3.46007e-15 -6.72302e-16 0
lhumerus -49.2987 -31.2213 112.363
lradius 56.5896 0 0
lwrist 5.00375 0 0
lhand 3.3439 -0.122152 0
lfingers 7.12502 0 0
lthumb 28.7971 27.7888 0
rclavicle 3.46007e-15 -6.72302e-16 0
rhumerus -47.0506 17.6946 -89.5268
rradius 72.5576 0 0
rwrist 19.5645 0 0
rhand -16.364 -21.2547 0
rfingers 7.12502 0 0
rthumb 9.81446 -770.521 0
